<?xml version="1.0" encoding="utf-8"?>
<!-- Generator: Adobe Illustrator 17.0.0, SVG Export Plug-In . SVG Version: 6.00 Build 0)  -->
<!DOCTYPE svg PUBLIC "-//W3C//DTD SVG 1.1//EN" "http://www.w3.org/Graphics/SVG/1.1/DTD/svg11.dtd">
<svg version="1.1" id="Layer_1" xmlns="http://www.w3.org/2000/svg" xmlns:xlink="http://www.w3.org/1999/xlink" x="0px" y="0px"
	 width="921.26px" height="226.77px" viewBox="0 0 921.26 226.77" enable-background="new 0 0 921.26 226.77" xml:space="preserve">
<path d="M514.969,50.232l-24.924,69.742l-9.584-11.585c8.858-1.575,13.362-8.623,13.362-16.047c0-8.322-5.611-16.721-16.832-16.721
	h-18.824v52.487h7.382V83.27h11.442c6.275,0,9.376,4.573,9.376,9.072c0,4.574-3.101,9.148-9.376,9.148h-8.711v3.599l18.825,23.02
	h0.032l-16.889,47.26l3.188-0.007l44.715-125.123L514.969,50.232z"/>
<path d="M518.875,119.966c-5.537-0.525-11.368-1.2-11.737-6.599c-0.148-1.8,0.221-3.524,1.255-4.874
	c2.066-2.699,5.905-3.898,9.375-3.974c4.503-0.075,9.523,1.949,10.557,6.674l7.382-0.301c-1.328-9.598-9.597-13.796-17.569-13.796
	c-5.979,0-12.181,2.399-15.65,6.973c-2.215,2.925-3.101,6.448-2.805,9.973v-0.075c0.812,10.947,10.261,12.747,18.308,13.572
	c5.167,0.524,10.482,1.199,11.368,5.174c0.147,0.675,0.222,1.274,0.222,1.799c0,5.399-6.054,8.549-11.59,8.549
	c-4.799,0-10.631-2.55-11.147-7.424v0.3l-0.073-1.124l-7.53,0.149l0.074,1.425c0.959,9.373,10.63,14.172,18.603,14.172
	c9.302,0,19.194-5.849,19.194-15.972c0-1.05-0.148-2.324-0.369-3.449C534.747,122.741,525.962,120.866,518.875,119.966z"/>
<polygon points="554.382,127.689 577.784,127.689 577.784,120.041 554.382,120.041 554.382,105.27 578.301,105.27 578.301,97.697 
	546.853,97.697 546.853,150.109 578.374,150.109 578.374,142.536 554.382,142.536 "/>
<path d="M612.404,142.986c-4.946,0-9.449-2.175-12.697-5.624s-5.315-8.098-5.315-13.347c0-5.398,2.067-10.048,5.315-13.497
	c3.248-3.448,7.751-5.623,12.697-5.623c7.604,0,13.952,3.974,16.684,11.847h7.383c-2.953-11.847-12.255-19.345-24.066-19.345
	c-7.013,0-13.361,3.074-17.865,7.798c-4.429,4.799-7.382,11.397-7.382,18.82c0,7.273,2.953,13.872,7.382,18.671
	c4.504,4.799,10.853,7.798,17.865,7.798c12.033,0,21.482-8.098,24.436-20.021h-7.309
	C626.873,138.412,620.23,142.986,612.404,142.986z"/>
<polygon points="638.905,104.82 654.556,104.82 654.556,150.109 662.012,150.109 662.012,104.82 677.588,104.82 677.588,97.621 
	638.905,97.621 "/>
<path d="M725.544,96.647c-7.309,0-14.026,3.074-18.825,8.023c-4.725,4.948-7.751,11.696-7.751,19.195
	c0,7.498,3.026,14.246,7.751,19.195c4.799,5.023,11.517,8.022,18.825,8.022c7.382,0,14.026-2.999,18.898-8.022
	c4.725-4.949,7.751-11.697,7.751-19.195c0-7.499-3.026-14.247-7.751-19.195C739.57,99.721,732.926,96.647,725.544,96.647z
	 M739.053,137.587c-3.469,3.599-8.342,5.773-13.509,5.773c-5.168,0-9.893-2.175-13.362-5.773c-3.47-3.449-5.61-8.323-5.61-13.722
	c0-5.399,2.141-10.272,5.61-13.722c3.47-3.6,8.194-5.774,13.362-5.774c5.167,0,10.04,2.175,13.509,5.774
	c3.396,3.449,5.537,8.248,5.537,13.722S742.449,134.138,739.053,137.587z"/>
<polygon points="793.238,134.587 768.065,97.621 762.307,97.621 762.307,150.109 769.763,150.109 769.763,113.443 794.714,150.109 
	800.62,150.109 800.62,97.621 793.238,97.621 "/>
<path d="M848.455,131.138c-1.993-8.397-10.778-10.272-17.865-11.172c-5.537-0.525-11.368-1.2-11.737-6.599
	c-0.148-1.8,0.221-3.524,1.255-4.874c2.066-2.699,5.905-3.898,9.375-3.974c4.503-0.075,9.523,1.949,10.557,6.674l7.382-0.301
	c-1.328-9.598-9.597-13.796-17.569-13.796c-5.979,0-12.181,2.399-15.65,6.973c-2.215,2.925-3.101,6.448-2.805,9.973v-0.075
	c0.812,10.947,10.261,12.747,18.308,13.572c5.167,0.524,10.482,1.199,11.368,5.174c0.147,0.675,0.222,1.274,0.222,1.799
	c0,5.399-6.054,8.549-11.59,8.549c-4.799,0-10.631-2.55-11.147-7.424v0.3l-0.073-1.124l-7.53,0.149l0.074,1.425
	c0.959,9.373,10.63,14.172,18.603,14.172c9.302,0,19.194-5.849,19.194-15.972C848.824,133.537,848.676,132.263,848.455,131.138z"/>
<rect x="683.945" y="97.44" width="7" height="53"/>
<polygon points="355.901,112.587 330.727,75.621 324.97,75.621 324.97,128.109 332.426,128.109 332.426,91.443 357.377,128.109 
	363.283,128.109 363.283,75.621 355.901,75.621 "/>
<polygon points="369.509,82.82 385.159,82.82 385.159,128.109 392.615,128.109 392.615,82.82 408.191,82.82 408.191,75.621 
	369.509,75.621 "/>
<polygon points="424.432,105.689 447.834,105.689 447.834,98.041 424.432,98.041 424.432,83.27 448.35,83.27 448.35,75.697 
	416.902,75.697 416.902,128.109 448.424,128.109 448.424,120.536 424.432,120.536 "/>
<rect x="307.478" y="75.235" width="7" height="53"/>
<g>
	<polygon fill="#D6B328" points="194.584,51.928 194.584,85.187 165.659,67.722 165.659,34.695 	"/>
	<polygon fill="#ECC21B" points="194.584,85.187 135.043,118.423 106.942,101.515 165.659,67.722 	"/>
	<polygon fill="#F4D221" points="106.919,135.238 135.294,151.775 105.981,168.59 77.605,151.96 	"/>
	<polygon fill="#CCB23A" points="135.043,118.423 135.294,151.775 106.919,135.238 106.942,101.515 	"/>
	<polygon fill="#EDECEC" points="77.697,83.771 106.942,101.515 106.919,135.238 77.605,151.96 	"/>
	<polygon fill="#E7E6E5" points="165.659,34.695 165.659,67.722 106.942,101.515 77.697,83.771 	"/>
	<polygon fill="#E5E4E4" points="144.433,173.011 144.433,139.752 203.974,106.446 232.075,123.424 	"/>
	<polygon fill="#62D3BD" points="261.388,141.401 173.174,190.383 144.433,173.011 232.075,123.424 	"/>
	<polygon fill="#D8D8D7" points="203.928,73.188 233.035,56.349 232.075,123.424 203.974,106.446 	"/>
	<polygon fill="#41A491" points="232.075,123.424 233.035,56.349 261.411,72.979 261.388,141.401 	"/>
</g>
</svg>
